<svg width="36" height="44" viewBox="0 0 36 44" fill="none" xmlns="http://www.w3.org/2000/svg">
<path d="M18 3.96327C14.287 3.96327 10.726 5.42399 8.1005 8.02409C5.475 10.6242 4 14.1507 4 17.8278C4 23.4964 7.564 28.9649 11.476 33.2015C13.4763 35.3597 15.6589 37.3449 18 39.1355C18.3493 38.8701 18.7593 38.5466 19.23 38.165C21.1096 36.6365 22.8786 34.9792 24.524 33.2055C28.436 28.9649 32 23.4984 32 17.8278C32 14.1507 30.525 10.6242 27.8995 8.02409C25.274 5.42399 21.713 3.96327 18 3.96327ZM18 44L16.866 43.2275L16.86 43.2236L16.848 43.2137L16.808 43.186L16.658 43.081L16.118 42.6908C13.3817 40.6543 10.8398 38.3736 8.524 35.8774C4.436 31.4447 0 25.0294 0 17.8258C7.11366e-08 13.0981 1.89642 8.56404 5.27208 5.22105C8.64773 1.87807 13.2261 0 18 0C22.7739 0 27.3523 1.87807 30.7279 5.22105C34.1036 8.56404 36 13.0981 36 17.8258C36 25.0294 31.564 31.4467 27.476 35.8734C25.1609 38.3695 22.6196 40.6502 19.884 42.6868C19.6561 42.8554 19.4261 43.0211 19.194 43.184L19.152 43.2117L19.14 43.2216L19.136 43.2236L18 44ZM18 13.8665C16.9391 13.8665 15.9217 14.2838 15.1716 15.0267C14.4214 15.7696 14 16.7772 14 17.8278C14 18.8784 14.4214 19.8859 15.1716 20.6288C15.9217 21.3717 16.9391 21.7891 18 21.7891C19.0609 21.7891 20.0783 21.3717 20.8284 20.6288C21.5786 19.8859 22 18.8784 22 17.8278C22 16.7772 21.5786 15.7696 20.8284 15.0267C20.0783 14.2838 19.0609 13.8665 18 13.8665ZM10 17.8278C10 15.7266 10.8429 13.7114 12.3431 12.2257C13.8434 10.7399 15.8783 9.9052 18 9.9052C20.1217 9.9052 22.1566 10.7399 23.6569 12.2257C25.1571 13.7114 26 15.7266 26 17.8278C26 19.929 25.1571 21.9441 23.6569 23.4299C22.1566 24.9157 20.1217 25.7503 18 25.7503C15.8783 25.7503 13.8434 24.9157 12.3431 23.4299C10.8429 21.9441 10 19.929 10 17.8278Z" fill="#57585F"/>
</svg>
