<svg width="44" height="44" viewBox="0 0 44 44" fill="none" xmlns="http://www.w3.org/2000/svg">
<g clip-path="url(#clip0_342_363)">
<g clip-path="url(#clip1_342_363)">
<path d="M7.21918 14.3418C7.74433 14.3418 8.25768 14.4976 8.69423 14.7895C9.13079 15.0814 9.47092 15.4963 9.67157 15.9816C9.87223 16.4669 9.92438 17.0008 9.82142 17.5158C9.71847 18.0308 9.46504 18.5036 9.09322 18.8745C8.7214 19.2453 8.2479 19.4975 7.73267 19.5991C7.21744 19.7008 6.68365 19.6472 6.19886 19.4453C5.71407 19.2434 5.30009 18.9022 5.00932 18.4649C4.71855 18.0276 4.56407 17.5138 4.56543 16.9887C4.56725 16.286 4.84764 15.6128 5.34512 15.1166C5.8426 14.6204 6.51655 14.3418 7.21918 14.3418ZM7.21918 12.2793C6.2861 12.2793 5.37399 12.5561 4.59826 13.0746C3.82252 13.5931 3.21804 14.3301 2.86128 15.1923C2.50452 16.0545 2.41152 17.0031 2.59406 17.9182C2.77659 18.8332 3.22646 19.6736 3.88672 20.3329C4.54699 20.9922 5.38799 21.4408 6.3033 21.622C7.21862 21.8032 8.16712 21.7088 9.02878 21.3508C9.89044 20.9928 10.6265 20.3872 11.1439 19.6108C11.6613 18.8343 11.9368 17.9217 11.9354 16.9887C11.9336 15.739 11.4359 14.5412 10.5516 13.6582C9.66737 12.7752 8.46881 12.2793 7.21918 12.2793Z" fill="#57585F"/>
<path d="M9.2675 24.3582C9.67823 24.3591 10.0847 24.4412 10.4636 24.5999C10.8425 24.7585 11.1862 24.9905 11.475 25.2825C11.7639 25.5745 11.9921 25.9208 12.1465 26.3014C12.301 26.682 12.3786 27.0894 12.375 27.5001V29.6932H2.0625V27.5001C2.06432 26.6765 2.3923 25.8871 2.97467 25.3048C3.55705 24.7224 4.3464 24.3944 5.17 24.3926H9.295M9.295 22.3301H5.17C3.79995 22.3337 2.48704 22.8796 1.51827 23.8483C0.54949 24.8171 0.0036293 26.13 0 27.5001L0 31.7557H14.4375V27.5001C14.4339 26.13 13.888 24.8171 12.9192 23.8483C11.9505 22.8796 10.6376 22.3337 9.2675 22.3301H9.295Z" fill="#57585F"/>
<path d="M36.7817 14.3418C37.3068 14.3418 37.8202 14.4976 38.2567 14.7895C38.6933 15.0814 39.0334 15.4963 39.2341 15.9816C39.4347 16.4669 39.4869 17.0008 39.3839 17.5158C39.281 18.0308 39.0275 18.5036 38.6557 18.8745C38.2839 19.2453 37.8104 19.4975 37.2952 19.5991C36.7799 19.7008 36.2461 19.6472 35.7614 19.4453C35.2766 19.2434 34.8626 18.9022 34.5718 18.4649C34.281 18.0276 34.1266 17.5138 34.1279 16.9887C34.1297 16.286 34.4101 15.6128 34.9076 15.1166C35.4051 14.6204 36.079 14.3418 36.7817 14.3418ZM36.7817 12.2793C35.8486 12.2793 34.9365 12.5561 34.1608 13.0746C33.385 13.5931 32.7805 14.3301 32.4238 15.1923C32.067 16.0545 31.974 17.0031 32.1566 17.9182C32.3391 18.8332 32.789 19.6736 33.4492 20.3329C34.1095 20.9922 34.9505 21.4408 35.8658 21.622C36.7811 21.8032 37.7296 21.7088 38.5913 21.3508C39.4529 20.9928 40.189 20.3872 40.7064 19.6108C41.2238 18.8343 41.4993 17.9217 41.4979 16.9887C41.4961 15.739 40.9984 14.5412 40.1141 13.6582C39.2299 12.7752 38.0313 12.2793 36.7817 12.2793Z" fill="#57585F"/>
<path d="M38.83 24.3582C39.2407 24.3591 39.6472 24.4412 40.0261 24.5999C40.405 24.7585 40.7487 24.9905 41.0375 25.2825C41.3264 25.5745 41.5546 25.9208 41.709 26.3014C41.8635 26.682 41.9411 27.0894 41.9375 27.5001V29.6932H31.625V27.5001C31.6268 26.6765 31.9548 25.8871 32.5372 25.3048C33.1195 24.7224 33.9089 24.3944 34.7325 24.3926H38.8575M38.8575 22.3301H34.7325C33.3624 22.3337 32.0495 22.8796 31.0808 23.8483C30.112 24.8171 29.5661 26.13 29.5625 27.5001V31.7557H44V27.5001C43.9964 26.13 43.4505 24.8171 42.4817 23.8483C41.513 22.8796 40.2001 22.3337 38.83 22.3301H38.8575Z" fill="#57585F"/>
<path d="M21.8139 26.6133C22.3391 26.6119 22.8528 26.7664 23.2901 27.0572C23.7274 27.3479 24.0686 27.7619 24.2705 28.2467C24.4725 28.7315 24.526 29.2653 24.4244 29.7805C24.3228 30.2958 24.0706 30.7692 23.6997 31.1411C23.3288 31.5129 22.856 31.7663 22.341 31.8693C21.8261 31.9722 21.2921 31.9201 20.8068 31.7194C20.3215 31.5188 19.9067 31.1786 19.6148 30.7421C19.3228 30.3055 19.167 29.7922 19.167 29.267C19.167 28.5644 19.4457 27.8905 19.9419 27.393C20.4381 26.8955 21.1113 26.6151 21.8139 26.6133ZM21.8139 24.5508C20.8811 24.5508 19.9693 24.8274 19.1937 25.3456C18.4181 25.8638 17.8136 26.6004 17.4567 27.4622C17.0997 28.324 17.0063 29.2723 17.1883 30.1871C17.3703 31.102 17.8194 31.9423 18.479 32.6019C19.1386 33.2615 19.9789 33.7107 20.8938 33.8927C21.8087 34.0746 22.757 33.9812 23.6187 33.6243C24.4805 33.2673 25.2171 32.6628 25.7353 31.8872C26.2536 31.1117 26.5302 30.1998 26.5302 29.267C26.5302 28.0162 26.0333 26.8166 25.1488 25.9321C24.2643 25.0477 23.0647 24.5508 21.8139 24.5508Z" fill="#57585F"/>
<path d="M23.8632 36.6299C24.2719 36.6299 24.6765 36.7105 25.054 36.8671C25.4315 37.0237 25.7743 37.2532 26.063 37.5425C26.3516 37.8318 26.5804 38.1751 26.7361 38.553C26.8919 38.9308 26.9716 39.3356 26.9707 39.7443V41.9374H16.6582V39.7443C16.6582 38.9183 16.9863 38.1261 17.5704 37.5421C18.1544 36.958 18.9466 36.6299 19.7726 36.6299H23.8632ZM23.8632 34.5674H19.7726C18.4007 34.571 17.0861 35.1176 16.116 36.0877C15.1459 37.0577 14.5993 38.3724 14.5957 39.7443V43.9999H29.0332V39.7443C29.0296 38.3736 28.4839 37.06 27.5154 36.0901C26.5468 35.1202 25.2339 34.5728 23.8632 34.5674Z" fill="#57585F"/>
<path d="M21.8139 2.0625C22.3391 2.06114 22.8528 2.21562 23.2901 2.50639C23.7274 2.79716 24.0686 3.21114 24.2705 3.69593C24.4725 4.18072 24.526 4.71452 24.4244 5.22974C24.3228 5.74497 24.0706 6.21847 23.6997 6.59029C23.3288 6.96211 22.856 7.21554 22.341 7.3185C21.8261 7.42145 21.2921 7.3693 20.8068 7.16865C20.3215 6.96799 19.9067 6.62786 19.6148 6.19131C19.3228 5.75475 19.167 5.24141 19.167 4.71625C19.167 4.01362 19.4457 3.33967 19.9419 2.84219C20.4381 2.34471 21.1113 2.06432 21.8139 2.0625ZM21.8139 0C20.8811 0 19.9693 0.276603 19.1937 0.794832C18.4181 1.31306 17.8136 2.04964 17.4567 2.91142C17.0997 3.7732 17.0063 4.72148 17.1883 5.63634C17.3703 6.55121 17.8194 7.39156 18.479 8.05114C19.1386 8.71072 19.9789 9.1599 20.8938 9.34188C21.8087 9.52386 22.757 9.43046 23.6187 9.0735C24.4805 8.71654 25.2171 8.11204 25.7353 7.33646C26.2536 6.56088 26.5302 5.64904 26.5302 4.71625C26.5302 3.46542 26.0333 2.26583 25.1488 1.38136C24.2643 0.496889 23.0647 0 21.8139 0Z" fill="#57585F"/>
<path d="M23.8632 12.0801C24.2713 12.0801 24.6754 12.1605 25.0524 12.3166C25.4294 12.4728 25.772 12.7017 26.0605 12.9902C26.3491 13.2788 26.578 13.6214 26.7342 13.9984C26.8903 14.3754 26.9707 14.7795 26.9707 15.1876V17.3876H16.6582V15.1876C16.66 14.3628 16.9889 13.5724 17.5728 12.9898C18.1567 12.4073 18.9478 12.0801 19.7726 12.0801H23.8632ZM23.8632 10.0176H19.7726C18.4019 10.0212 17.0883 10.5668 16.1184 11.5354C15.1485 12.504 14.6011 13.8169 14.5957 15.1876V19.4501H29.0332V15.1876C29.0296 13.8175 28.4837 12.5046 27.5149 11.5358C26.5462 10.5671 25.2333 10.0212 23.8632 10.0176Z" fill="#57585F"/>
</g>
</g>
<defs>
<clipPath id="clip0_342_363">
<rect width="44" height="44" fill="white"/>
</clipPath>
<clipPath id="clip1_342_363">
<rect width="44" height="44" fill="white"/>
</clipPath>
</defs>
</svg>
