<svg width="57" height="56" viewBox="0 0 57 56" fill="none" xmlns="http://www.w3.org/2000/svg">
<g clip-path="url(#clip0_459_240)">
<g clip-path="url(#clip1_459_240)">
<path d="M9.68755 18.2524C10.3559 18.2524 11.0093 18.4508 11.5649 18.8223C12.1205 19.1938 12.5534 19.7218 12.8088 20.3395C13.0642 20.9571 13.1305 21.6367 12.9995 22.2921C12.8685 22.9475 12.5459 23.5493 12.0727 24.0213C11.5995 24.4933 10.9968 24.8143 10.3411 24.9436C9.68535 25.0729 9.00597 25.0048 8.38897 24.7478C7.77196 24.4908 7.24508 24.0566 6.87501 23.5C6.50494 22.9434 6.30832 22.2896 6.31005 21.6212C6.31237 20.7269 6.66924 19.8701 7.30239 19.2386C7.93554 18.6071 8.7933 18.2524 9.68755 18.2524ZM9.68755 15.6274C8.5 15.6274 7.33913 15.9797 6.35184 16.6397C5.36454 17.2996 4.59519 18.2376 4.14114 19.3349C3.68708 20.4322 3.56872 21.6396 3.80104 22.8042C4.03336 23.9688 4.60591 25.0383 5.44625 25.8774C6.28659 26.7166 7.35695 27.2876 8.5219 27.5182C9.68685 27.7488 10.894 27.6287 11.9907 27.173C13.0873 26.7174 14.0242 25.9466 14.6827 24.9584C15.3412 23.9701 15.6918 22.8087 15.6901 21.6212C15.6877 20.0307 15.0543 18.5062 13.9289 17.3824C12.8034 16.2586 11.278 15.6274 9.68755 15.6274Z" fill="#57585F"/>
<path d="M12.295 31.0012C12.8177 31.0023 13.3351 31.1068 13.8173 31.3087C14.2995 31.5106 14.737 31.8059 15.1046 32.1776C15.4722 32.5492 15.7626 32.99 15.9592 33.4743C16.1558 33.9587 16.2546 34.4772 16.25 34.9999V37.7912H3.125V34.9999C3.12731 33.9517 3.54474 32.9471 4.28595 32.2059C5.02715 31.4647 6.03178 31.0472 7.08 31.0449H12.33M12.33 28.4199H7.08C5.3363 28.4245 3.66533 29.1193 2.43234 30.3523C1.19935 31.5853 0.504619 33.2562 0.5 34.9999L0.5 40.4162H18.875V34.9999C18.8704 33.2562 18.1756 31.5853 16.9427 30.3523C15.7097 29.1193 14.0387 28.4245 12.295 28.4199H12.33Z" fill="#57585F"/>
<path d="M47.3126 18.2524C47.9809 18.2524 48.6343 18.4508 49.1899 18.8223C49.7455 19.1938 50.1784 19.7218 50.4338 20.3395C50.6892 20.9571 50.7555 21.6367 50.6245 22.2921C50.4935 22.9475 50.1709 23.5493 49.6977 24.0213C49.2245 24.4933 48.6218 24.8143 47.9661 24.9436C47.3103 25.0729 46.631 25.0048 46.014 24.7478C45.397 24.4908 44.8701 24.0566 44.5 23.5C44.1299 22.9434 43.9333 22.2896 43.9351 21.6212C43.9374 20.7269 44.2942 19.8701 44.9274 19.2386C45.5605 18.6071 46.4183 18.2524 47.3126 18.2524ZM47.3126 15.6274C46.125 15.6274 44.9641 15.9797 43.9768 16.6397C42.9895 17.2996 42.2202 18.2376 41.7661 19.3349C41.3121 20.4322 41.1937 21.6396 41.426 22.8042C41.6584 23.9688 42.2309 25.0383 43.0713 25.8774C43.9116 26.7166 44.982 27.2876 46.1469 27.5182C47.3118 27.7488 48.519 27.6287 49.6157 27.173C50.7123 26.7174 51.6492 25.9466 52.3077 24.9584C52.9662 23.9701 53.3168 22.8087 53.3151 21.6212C53.3127 20.0307 52.6793 18.5062 51.5539 17.3824C50.4284 16.2586 48.903 15.6274 47.3126 15.6274Z" fill="#57585F"/>
<path d="M49.92 31.0012C50.4427 31.0023 50.9601 31.1068 51.4423 31.3087C51.9245 31.5106 52.362 31.8059 52.7296 32.1776C53.0972 32.5492 53.3876 32.99 53.5842 33.4743C53.7808 33.9587 53.8796 34.4772 53.875 34.9999V37.7912H40.75V34.9999C40.7523 33.9517 41.1697 32.9471 41.9109 32.2059C42.6522 31.4647 43.6568 31.0472 44.705 31.0449H49.955M49.955 28.4199H44.705C42.9613 28.4245 41.2903 29.1193 40.0573 30.3523C38.8244 31.5853 38.1296 33.2562 38.125 34.9999V40.4162H56.5V34.9999C56.4954 33.2562 55.8006 31.5853 54.5677 30.3523C53.3347 29.1193 51.6637 28.4245 49.92 28.4199H49.955Z" fill="#57585F"/>
<path d="M28.2637 33.8711C28.9321 33.8694 29.586 34.066 30.1425 34.436C30.6991 34.8061 31.1334 35.333 31.3904 35.95C31.6473 36.567 31.7155 37.2464 31.5861 37.9021C31.4568 38.5579 31.1358 39.1605 30.6638 39.6337C30.1918 40.107 29.59 40.4295 28.9346 40.5605C28.2792 40.6916 27.5997 40.6252 26.982 40.3698C26.3643 40.1145 25.8363 39.6816 25.4648 39.1259C25.0933 38.5703 24.895 37.917 24.895 37.2486C24.895 36.3543 25.2496 35.4966 25.8811 34.8634C26.5126 34.2303 27.3695 33.8734 28.2637 33.8711ZM28.2637 31.2461C27.0765 31.2461 25.916 31.5981 24.9289 32.2577C23.9418 32.9173 23.1725 33.8547 22.7181 34.9515C22.2638 36.0483 22.145 37.2553 22.3766 38.4196C22.6082 39.584 23.1799 40.6535 24.0193 41.493C24.8588 42.3325 25.9283 42.9042 27.0927 43.1358C28.2571 43.3674 29.464 43.2485 30.5608 42.7942C31.6576 42.3399 32.5951 41.5705 33.2546 40.5834C33.9142 39.5963 34.2662 38.4358 34.2662 37.2486C34.2662 35.6566 33.6338 34.1299 32.5081 33.0042C31.3825 31.8785 29.8557 31.2461 28.2637 31.2461Z" fill="#57585F"/>
<path d="M30.8712 46.6201C31.3913 46.6201 31.9063 46.7227 32.3867 46.922C32.8671 47.1213 33.3035 47.4134 33.6709 47.7816C34.0382 48.1498 34.3294 48.5868 34.5276 49.0677C34.7259 49.5485 34.8273 50.0638 34.8262 50.5839V53.3751H21.7012V50.5839C21.7012 49.5326 22.1188 48.5244 22.8621 47.7811C23.6055 47.0377 24.6137 46.6201 25.6649 46.6201H30.8712ZM30.8712 43.9951H25.6649C23.9189 43.9997 22.2457 44.6954 21.0111 45.93C19.7764 47.1647 19.0808 48.8378 19.0762 50.5839V56.0001H37.4512V50.5839C37.4466 48.8394 36.7521 47.1675 35.5194 45.9331C34.2866 44.6987 32.6157 44.002 30.8712 43.9951Z" fill="#57585F"/>
<path d="M28.2637 2.625C28.9321 2.62327 29.586 2.81988 30.1425 3.18995C30.6991 3.56002 31.1334 4.08691 31.3904 4.70391C31.6473 5.32092 31.7155 6.00029 31.5861 6.65604C31.4568 7.31178 31.1358 7.91441 30.6638 8.38764C30.1918 8.86087 29.59 9.18342 28.9346 9.31445C28.2792 9.44548 27.5997 9.37911 26.982 9.12373C26.3643 8.86836 25.8363 8.43546 25.4648 7.87984C25.0933 7.32423 24.895 6.67088 24.895 6.0025C24.895 5.10825 25.2496 4.25049 25.8811 3.61733C26.5126 2.98418 27.3695 2.62732 28.2637 2.625ZM28.2637 0C27.0765 0 25.916 0.35204 24.9289 1.0116C23.9418 1.67117 23.1725 2.60863 22.7181 3.70544C22.2638 4.80226 22.145 6.00916 22.3766 7.17353C22.6082 8.3379 23.1799 9.40744 24.0193 10.2469C24.8588 11.0864 25.9283 11.6581 27.0927 11.8897C28.2571 12.1213 29.464 12.0024 30.5608 11.5481C31.6576 11.0938 32.5951 10.3244 33.2546 9.33731C33.9142 8.3502 34.2662 7.18968 34.2662 6.0025C34.2662 4.41054 33.6338 2.88378 32.5081 1.75809C31.3825 0.632405 29.8557 0 28.2637 0Z" fill="#57585F"/>
<path d="M30.8712 15.3735C31.3905 15.3735 31.9048 15.4758 32.3847 15.6746C32.8645 15.8733 33.3005 16.1647 33.6678 16.5319C34.035 16.8992 34.3264 17.3352 34.5251 17.815C34.7239 18.2949 34.8262 18.8092 34.8262 19.3285V22.1285H21.7012V19.3285C21.7035 18.2788 22.1221 17.2729 22.8652 16.5314C23.6083 15.7899 24.6152 15.3735 25.6649 15.3735H30.8712ZM30.8712 12.7485H25.6649C23.9204 12.7531 22.2485 13.4476 21.0142 14.6803C19.7798 15.9131 19.0831 17.584 19.0762 19.3285V24.7535H37.4512V19.3285C37.4466 17.5848 36.7518 15.9139 35.5188 14.6809C34.2858 13.4479 32.6149 12.7532 30.8712 12.7485Z" fill="#57585F"/>
</g>
</g>
<defs>
<clipPath id="clip0_459_240">
<rect width="56" height="56" fill="white" transform="translate(0.5)"/>
</clipPath>
<clipPath id="clip1_459_240">
<rect width="56" height="56" fill="white" transform="translate(0.5)"/>
</clipPath>
</defs>
</svg>
