<svg width="57" height="56" viewBox="0 0 57 56" fill="none" xmlns="http://www.w3.org/2000/svg">
<g clip-path="url(#clip0_459_212)">
<g clip-path="url(#clip1_459_212)">
<g clip-path="url(#clip2_459_212)">
<path d="M28.5 2.625C33.5187 2.625 38.4247 4.11322 42.5976 6.90146C46.7705 9.6897 50.0229 13.6527 51.9435 18.2894C53.864 22.9261 54.3665 28.0281 53.3874 32.9504C52.4083 37.8727 49.9916 42.3941 46.4428 45.9428C42.8941 49.4916 38.3727 51.9083 33.4504 52.8874C28.5282 53.8665 23.4261 53.364 18.7894 51.4434C14.1527 49.5229 10.1897 46.2705 7.40147 42.0976C4.61323 37.9247 3.12501 33.0187 3.12501 28C3.12501 21.2701 5.79844 14.8159 10.5572 10.0572C15.3159 5.29843 21.7701 2.625 28.5 2.625ZM28.5 0C22.9621 0 17.5486 1.64217 12.944 4.71885C8.33947 7.79553 4.75064 12.1685 2.63139 17.2849C0.512132 22.4012 -0.0423614 28.0311 1.03802 33.4625C2.11841 38.894 4.78515 43.8831 8.70102 47.799C12.6169 51.7149 17.606 54.3816 23.0375 55.462C28.469 56.5424 34.0988 55.9879 39.2151 53.8686C44.3315 51.7494 48.7045 48.1605 51.7812 43.556C54.8578 38.9514 56.5 33.5379 56.5 28C56.5 20.5739 53.55 13.452 48.299 8.20101C43.048 2.94999 35.9261 0 28.5 0Z" fill="#57585F"/>
<path d="M28.5 9.625C32.1342 9.625 35.6869 10.7027 38.7086 12.7217C41.7304 14.7408 44.0855 17.6106 45.4763 20.9682C46.8671 24.3258 47.2309 28.0204 46.5219 31.5848C45.8129 35.1492 44.0629 38.4233 41.4931 40.9931C38.9233 43.5629 35.6492 45.3129 32.0848 46.0219C28.5204 46.7309 24.8258 46.367 21.4682 44.9763C18.1106 43.5855 15.2408 41.2304 13.2218 38.2086C11.2027 35.1868 10.125 31.6342 10.125 28C10.125 23.1266 12.0609 18.4529 15.5069 15.0069C18.9529 11.5609 23.6267 9.625 28.5 9.625ZM28.5 7C24.3466 7 20.2865 8.23163 16.833 10.5391C13.3796 12.8466 10.688 16.1264 9.09854 19.9636C7.5091 23.8009 7.09323 28.0233 7.90352 32.0969C8.71381 36.1705 10.7139 39.9123 13.6508 42.8492C16.5877 45.7861 20.3295 47.7862 24.4031 48.5965C28.4767 49.4068 32.6991 48.9909 36.5364 47.4015C40.3736 45.812 43.6534 43.1204 45.9609 39.667C48.2684 36.2135 49.5 32.1534 49.5 28C49.5 22.4305 47.2875 17.089 43.3493 13.1508C39.411 9.21249 34.0696 7 28.5 7Z" fill="#57585F"/>
<path d="M33.4612 19.2502H33.6624C35.069 19.3234 36.3965 19.9231 37.3812 20.9302C38.0968 21.6623 38.6121 22.5663 38.8774 23.5552C40.0237 29.6277 32.8224 35.8752 28.4999 38.5002C24.1774 35.8752 16.9762 29.6452 18.1224 23.6252C18.3877 22.6363 18.903 21.7323 19.6187 21.0002C20.3258 20.2726 21.2184 19.7522 22.1999 19.4952C22.5722 19.3985 22.9533 19.3399 23.3374 19.3202H23.5737C24.6657 19.3069 25.7332 19.6438 26.6198 20.2816C27.5063 20.9193 28.1653 21.8244 28.4999 22.8639C28.835 21.8122 29.4967 20.8947 30.3889 20.2448C31.2811 19.5949 32.3573 19.2465 33.4612 19.2502ZM33.4612 16.6252C31.6541 16.6131 29.8995 17.2321 28.4999 18.3752C27.7675 17.7825 26.9348 17.3261 26.0412 17.0277C25.2498 16.7694 24.4236 16.6336 23.5912 16.6252H23.2499C22.6798 16.652 22.114 16.737 21.5612 16.8789C20.1105 17.2578 18.7912 18.0264 17.7462 19.1014C16.7191 20.1581 15.9783 21.459 15.5937 22.8814V22.9777V23.0739C14.9462 26.5127 16.2237 30.2839 19.2949 33.9852C21.551 36.627 24.2084 38.8977 27.1699 40.7139L28.5262 41.5364L29.8824 40.7139C32.8439 38.8977 35.5014 36.627 37.7574 33.9852C40.8287 30.2839 42.1324 26.5127 41.4587 23.0739V22.9777V22.8814C41.0721 21.4572 40.3317 20.1539 39.3062 19.0927C38.2593 18.0318 36.9436 17.2756 35.4999 16.9052C34.9295 16.7438 34.3422 16.6498 33.7499 16.6252H33.4612Z" fill="#57585F"/>
</g>
</g>
</g>
<defs>
<clipPath id="clip0_459_212">
<rect width="56" height="56" fill="white" transform="translate(0.5)"/>
</clipPath>
<clipPath id="clip1_459_212">
<rect width="56" height="56" fill="white" transform="translate(0.5)"/>
</clipPath>
<clipPath id="clip2_459_212">
<rect width="56" height="56" fill="white" transform="translate(0.5)"/>
</clipPath>
</defs>
</svg>
