<svg width="56" height="56" viewBox="0 0 56 56" fill="none" xmlns="http://www.w3.org/2000/svg">
<g clip-path="url(#clip0_459_225)">
<g clip-path="url(#clip1_459_225)">
<g clip-path="url(#clip2_459_225)">
<path d="M28 2.625C36.6888 2.625 43.75 9.3275 43.75 17.5612C43.75 20.5537 42.8225 23.4412 41.055 25.9175L41.0112 25.9788L40.9675 26.0487C37.7825 31.1413 35.8662 35.6125 35.2275 39.3837H20.7725C19.9412 34.4225 17.0712 29.2425 15.2513 26.3375L15.1988 26.25L15.1375 26.1625C13.2562 23.6337 12.2588 20.6588 12.2588 17.57C12.25 9.3275 19.3112 2.625 28 2.625ZM28 0C17.85 0 9.625 7.8575 9.625 17.5612C9.625 21.35 10.885 24.8588 13.02 27.7288C15.5838 31.815 18.375 37.5287 18.375 42.0087H37.625C37.625 37.275 40.6263 31.5525 43.19 27.44C45.1938 24.6225 46.375 21.2275 46.375 17.5612C46.375 7.8575 38.15 0 28 0Z" fill="#57585F"/>
<path d="M36.3125 44.625H19.6875C18.9626 44.625 18.375 45.2126 18.375 45.9375C18.375 46.6624 18.9626 47.25 19.6875 47.25H36.3125C37.0374 47.25 37.625 46.6624 37.625 45.9375C37.625 45.2126 37.0374 44.625 36.3125 44.625Z" fill="#57585F"/>
<path d="M36.3125 49H19.6875C18.9626 49 18.375 49.5876 18.375 50.3125C18.375 51.0374 18.9626 51.625 19.6875 51.625H36.3125C37.0374 51.625 37.625 51.0374 37.625 50.3125C37.625 49.5876 37.0374 49 36.3125 49Z" fill="#57585F"/>
<path d="M34.5625 53.375H21.4375C20.7126 53.375 20.125 53.9626 20.125 54.6875C20.125 55.4124 20.7126 56 21.4375 56H34.5625C35.2874 56 35.875 55.4124 35.875 54.6875C35.875 53.9626 35.2874 53.375 34.5625 53.375Z" fill="#57585F"/>
</g>
</g>
</g>
<defs>
<clipPath id="clip0_459_225">
<rect width="56" height="56" fill="white"/>
</clipPath>
<clipPath id="clip1_459_225">
<rect width="56" height="56" fill="white"/>
</clipPath>
<clipPath id="clip2_459_225">
<rect width="56" height="56" fill="white"/>
</clipPath>
</defs>
</svg>
