<svg width="36" height="36" viewBox="0 0 36 36" fill="none" xmlns="http://www.w3.org/2000/svg">
<g clip-path="url(#clip0_342_903)">
<g clip-path="url(#clip1_342_903)">
<g clip-path="url(#clip2_342_903)">
<g clip-path="url(#clip3_342_903)">
<path d="M21.8024 16.58L21.5604 18.67C21.5503 18.7652 21.5057 18.8535 21.4349 18.918C21.3641 18.9825 21.2721 19.0188 21.1764 19.02H18.9944L18.9844 25.218C18.9849 25.2916 18.9565 25.3624 18.9052 25.4152C18.8539 25.468 18.7839 25.4984 18.7104 25.5H16.5004C16.4636 25.5 16.4272 25.4926 16.3933 25.4782C16.3594 25.4638 16.3288 25.4427 16.3033 25.4162C16.2778 25.3897 16.258 25.3583 16.2449 25.3239C16.2319 25.2895 16.2259 25.2528 16.2274 25.216V19.02H14.5914C14.54 19.0195 14.4893 19.0088 14.442 18.9887C14.3948 18.9686 14.352 18.9393 14.3161 18.9027C14.2801 18.866 14.2518 18.8226 14.2326 18.7749C14.2134 18.7273 14.2038 18.6763 14.2044 18.625L14.1954 16.535C14.1944 16.4832 14.2038 16.4318 14.2228 16.3836C14.2418 16.3354 14.2702 16.2915 14.3062 16.2543C14.3423 16.2172 14.3853 16.1875 14.4329 16.167C14.4805 16.1465 14.5316 16.1357 14.5834 16.135H16.2274V14.119C16.2274 11.775 17.6184 10.5 19.6584 10.5H21.3304C21.3821 10.5005 21.4332 10.5112 21.4807 10.5315C21.5282 10.5518 21.5713 10.5813 21.6075 10.6183C21.6436 10.6553 21.6721 10.699 21.6913 10.747C21.7105 10.795 21.72 10.8463 21.7194 10.898V12.658C21.7199 12.7097 21.7102 12.761 21.6909 12.8089C21.6716 12.8569 21.643 12.9005 21.6067 12.9374C21.5705 12.9743 21.5274 13.0037 21.4798 13.0238C21.4322 13.044 21.3811 13.0546 21.3294 13.055H20.3054C19.1974 13.055 18.9814 13.601 18.9814 14.389V16.136H21.4184C21.4738 16.1367 21.5285 16.1491 21.5788 16.1724C21.629 16.1957 21.6738 16.2293 21.7102 16.2712C21.7466 16.313 21.7737 16.3621 21.7897 16.4151C21.8058 16.4682 21.8104 16.524 21.8034 16.579L21.8024 16.58Z" fill="#1E1E1E"/>
</g>
</g>
</g>
<mask id="path-3-inside-1_342_903" fill="white">
<path d="M0 18C0 8.05888 8.05888 0 18 0C27.9411 0 36 8.05888 36 18C36 27.9411 27.9411 36 18 36C8.05888 36 0 27.9411 0 18Z"/>
</mask>
<path d="M18 36V35C8.61116 35 1 27.3888 1 18H0H-1C-1 28.4934 7.50659 37 18 37V36ZM36 18H35C35 27.3888 27.3888 35 18 35V36V37C28.4934 37 37 28.4934 37 18H36ZM18 0V1C27.3888 1 35 8.61116 35 18H36H37C37 7.50659 28.4934 -1 18 -1V0ZM18 0V-1C7.50659 -1 -1 7.50659 -1 18H0H1C1 8.61116 8.61116 1 18 1V0Z" fill="#232F3A" mask="url(#path-3-inside-1_342_903)"/>
</g>
<defs>
<clipPath id="clip0_342_903">
<rect width="36" height="36" rx="18" fill="white"/>
</clipPath>
<clipPath id="clip1_342_903">
<rect width="8" height="16" fill="white" transform="translate(14 10)"/>
</clipPath>
<clipPath id="clip2_342_903">
<rect width="8" height="16" fill="white" transform="translate(14 10)"/>
</clipPath>
<clipPath id="clip3_342_903">
<rect width="8" height="16" fill="white" transform="translate(14 10)"/>
</clipPath>
</defs>
</svg>
