<svg width="32" height="32" viewBox="0 0 32 32" fill="none" xmlns="http://www.w3.org/2000/svg">
<path fill-rule="evenodd" clip-rule="evenodd" d="M26.8889 2H5.11111C3.39222 2 2 3.39222 2 5.11111V26.8889C2 28.6078 3.39222 30 5.11111 30H26.8889C28.6078 30 30 28.6078 30 26.8889V5.11111C30 3.39222 28.6078 2 26.8889 2ZM10.4661 26.1111H6.28944V12.6283H10.4661V26.1111ZM8.35833 10.8628C6.99333 10.8628 5.88889 9.75056 5.88889 8.37389C5.88889 6.99722 6.99333 5.885 8.35833 5.885C9.72333 5.885 10.8278 6.99722 10.8278 8.37389C10.8278 9.75056 9.72333 10.8628 8.35833 10.8628ZM26.1111 26.1111H21.9578V19.0333C21.9578 17.0928 21.2189 16.0078 19.6867 16.0078C18.0144 16.0078 17.1433 17.1356 17.1433 19.0333V26.1111H13.1378V12.6283H17.1433V14.4444C17.1433 14.4444 18.3489 12.2161 21.2072 12.2161C24.0656 12.2161 26.115 13.9622 26.115 17.575V26.1111H26.1111Z" fill="#0A66C2"/>
</svg>
