<svg width="32" height="32" viewBox="0 0 32 32" fill="none" xmlns="http://www.w3.org/2000/svg">
<path d="M24.0564 9.90299C23.869 9.42049 23.645 9.07585 23.2832 8.71397C22.9214 8.3521 22.5769 8.12808 22.0945 7.94068C21.7306 7.79852 21.1836 7.6305 20.1757 7.58527C19.086 7.53573 18.7587 7.52496 15.9979 7.52496C15.6533 7.52496 15.3454 7.52496 15.0697 7.52496C13.1423 7.52496 12.7741 7.53788 11.8201 7.58096C10.8122 7.6262 10.2652 7.79421 9.9013 7.93637C9.41891 8.12377 9.07435 8.34779 8.71256 8.70966C8.35077 9.07154 8.1268 9.41618 7.93945 9.89868C7.79731 10.2627 7.62934 10.8098 7.58412 11.8179C7.53458 12.9078 7.52382 13.2331 7.52382 15.9945C7.52382 18.756 7.53458 19.0834 7.58412 20.1733C7.62934 21.1814 7.79947 21.7285 7.93945 22.0925C8.1268 22.575 8.35077 22.9197 8.71256 23.2816C9.07435 23.6434 9.41891 23.8674 9.9013 24.0548C10.2652 24.197 10.8122 24.365 11.8201 24.4124C12.9098 24.462 13.2371 24.4727 15.9979 24.4727C18.7587 24.4727 19.086 24.462 20.1757 24.4124C21.1836 24.3672 21.7306 24.1992 22.0945 24.057C22.5769 23.8696 22.9214 23.6456 23.2832 23.2837C23.645 22.9218 23.869 22.5793 24.0564 22.0968C24.1985 21.7328 24.3665 21.1857 24.4117 20.1776C24.4612 19.0877 24.472 18.7603 24.472 16.001C24.472 13.2417 24.4612 12.9143 24.4117 11.8244C24.3665 10.8163 24.1963 10.2692 24.0564 9.90514V9.90299ZM15.9979 21.3106C13.067 21.3106 10.6895 18.9348 10.6895 16.001C10.6895 13.0672 13.067 10.6914 15.9979 10.6914C18.9288 10.6914 21.3063 13.0694 21.3063 16.001C21.3063 18.9326 18.931 21.3106 15.9979 21.3106ZM21.5152 11.7231C20.8304 11.7231 20.2748 11.1674 20.2748 10.4824C20.2748 9.79744 20.8304 9.2417 21.5152 9.2417C22.2 9.2417 22.7556 9.79744 22.7556 10.4824C22.7556 11.1674 22.2 11.7231 21.5152 11.7231Z" fill="url(#paint0_radial_342_388)"/>
<path d="M24.0564 9.90299C23.869 9.42049 23.645 9.07585 23.2832 8.71397C22.9214 8.3521 22.5769 8.12808 22.0945 7.94068C21.7306 7.79852 21.1836 7.6305 20.1757 7.58527C19.086 7.53573 18.7587 7.52496 15.9979 7.52496C15.6533 7.52496 15.3454 7.52496 15.0697 7.52496C13.1423 7.52496 12.7741 7.53788 11.8201 7.58096C10.8122 7.6262 10.2652 7.79421 9.9013 7.93637C9.41891 8.12377 9.07435 8.34779 8.71256 8.70966C8.35077 9.07154 8.1268 9.41618 7.93945 9.89868C7.79731 10.2627 7.62934 10.8098 7.58412 11.8179C7.53458 12.9078 7.52382 13.2331 7.52382 15.9945C7.52382 18.756 7.53458 19.0834 7.58412 20.1733C7.62934 21.1814 7.79947 21.7285 7.93945 22.0925C8.1268 22.575 8.35077 22.9197 8.71256 23.2816C9.07435 23.6434 9.41891 23.8674 9.9013 24.0548C10.2652 24.197 10.8122 24.365 11.8201 24.4124C12.9098 24.462 13.2371 24.4727 15.9979 24.4727C18.7587 24.4727 19.086 24.462 20.1757 24.4124C21.1836 24.3672 21.7306 24.1992 22.0945 24.057C22.5769 23.8696 22.9214 23.6456 23.2832 23.2837C23.645 22.9218 23.869 22.5793 24.0564 22.0968C24.1985 21.7328 24.3665 21.1857 24.4117 20.1776C24.4612 19.0877 24.472 18.7603 24.472 16.001C24.472 13.2417 24.4612 12.9143 24.4117 11.8244C24.3665 10.8163 24.1963 10.2692 24.0564 9.90514V9.90299ZM15.9979 21.3106C13.067 21.3106 10.6895 18.9348 10.6895 16.001C10.6895 13.0672 13.067 10.6914 15.9979 10.6914C18.9288 10.6914 21.3063 13.0694 21.3063 16.001C21.3063 18.9326 18.931 21.3106 15.9979 21.3106ZM21.5152 11.7231C20.8304 11.7231 20.2748 11.1674 20.2748 10.4824C20.2748 9.79744 20.8304 9.2417 21.5152 9.2417C22.2 9.2417 22.7556 9.79744 22.7556 10.4824C22.7556 11.1674 22.2 11.7231 21.5152 11.7231Z" fill="url(#paint1_radial_342_388)"/>
<path d="M15.9978 19.4475C17.9008 19.4475 19.4435 17.9045 19.4435 16.0011C19.4435 14.0977 17.9008 12.5547 15.9978 12.5547C14.0949 12.5547 12.5522 14.0977 12.5522 16.0011C12.5522 17.9045 14.0949 19.4475 15.9978 19.4475Z" fill="url(#paint2_radial_342_388)"/>
<path d="M15.9978 19.4475C17.9008 19.4475 19.4435 17.9045 19.4435 16.0011C19.4435 14.0977 17.9008 12.5547 15.9978 12.5547C14.0949 12.5547 12.5522 14.0977 12.5522 16.0011C12.5522 17.9045 14.0949 19.4475 15.9978 19.4475Z" fill="url(#paint3_radial_342_388)"/>
<path d="M29.9742 8.06785C29.8859 6.94346 29.6942 6.1874 29.3001 5.38826C28.9771 4.73344 28.6196 4.24663 28.1006 3.7469C27.1746 2.8616 26.0418 2.3231 24.6916 2.12924C24.0369 2.03446 23.9077 2.00646 20.5611 2H16.0043C10.1597 2 8.44978 2.00646 8.11814 2.03446C6.91863 2.13355 6.17136 2.3231 5.35948 2.72806C4.73281 3.04039 4.2375 3.40011 3.75081 3.9063C2.86141 4.82822 2.32303 5.96123 2.12921 7.31179C2.03446 7.96661 2.00646 8.10016 2 11.4432C2 12.559 2 14.0258 2 15.9946C2 21.8363 2.00646 23.5444 2.03446 23.8761C2.13136 25.0436 2.31441 25.7781 2.70205 26.5816C3.44286 28.1195 4.85771 29.2741 6.52453 29.7049C7.10168 29.8535 7.73912 29.9354 8.55745 29.9741C8.90417 29.9892 12.4381 30 15.9742 30C19.5102 30 23.0463 29.9957 23.3844 29.9785C24.3319 29.9332 24.8832 29.86 25.4905 29.7027C27.1681 29.2698 28.5571 28.1325 29.313 26.573C29.692 25.7889 29.8859 25.0264 29.9742 23.9192C29.9935 23.678 30 19.8309 30 15.9903C30 12.1497 29.9914 8.3091 29.972 8.06785H29.9742ZM26.2723 20.2639C26.2206 21.3646 26.0461 22.1163 25.792 22.7733C25.5272 23.454 25.174 24.0291 24.599 24.6042C24.024 25.1793 23.449 25.5326 22.7685 25.7975C22.1117 26.0539 21.3579 26.2283 20.2575 26.2779C19.1549 26.3274 18.8039 26.3403 15.9957 26.3403C13.1875 26.3403 12.8365 26.3274 11.7339 26.2779C10.6334 26.2283 9.88186 26.0539 9.22504 25.7975C8.54453 25.5326 7.96954 25.1793 7.39455 24.6042C6.81957 24.0291 6.46639 23.4518 6.20151 22.7733C5.94524 22.1163 5.77296 21.3646 5.72127 20.2639C5.67174 19.161 5.65882 18.8099 5.65882 16.0011C5.65882 13.1922 5.67174 12.8411 5.72127 11.7383C5.7708 10.6376 5.94524 9.88584 6.20151 9.22886C6.46639 8.5482 6.81957 7.97307 7.39455 7.39795C7.96954 6.82283 8.54669 6.46957 9.22504 6.20679C9.88186 5.95046 10.6334 5.77598 11.7339 5.72644C12.8365 5.6769 13.1897 5.66397 15.9935 5.66397H15.9978C18.8039 5.66397 19.1549 5.6769 20.2575 5.72644C21.3579 5.77598 22.1095 5.95046 22.7685 6.20679C23.449 6.46957 24.024 6.82283 24.599 7.39795C25.174 7.97307 25.5272 8.55035 25.792 9.22886C26.0461 9.88584 26.2206 10.6376 26.2723 11.7383C26.3218 12.8411 26.3347 13.1944 26.3347 16.0011C26.3347 18.8078 26.3218 19.161 26.2723 20.2639Z" fill="url(#paint4_radial_342_388)"/>
<path d="M29.9742 8.06785C29.8859 6.94346 29.6942 6.1874 29.3001 5.38826C28.9771 4.73344 28.6196 4.24663 28.1006 3.7469C27.1746 2.8616 26.0418 2.3231 24.6916 2.12924C24.0369 2.03446 23.9077 2.00646 20.5611 2H16.0043C10.1597 2 8.44978 2.00646 8.11814 2.03446C6.91863 2.13355 6.17136 2.3231 5.35948 2.72806C4.73281 3.04039 4.2375 3.40011 3.75081 3.9063C2.86141 4.82822 2.32303 5.96123 2.12921 7.31179C2.03446 7.96661 2.00646 8.10016 2 11.4432C2 12.559 2 14.0258 2 15.9946C2 21.8363 2.00646 23.5444 2.03446 23.8761C2.13136 25.0436 2.31441 25.7781 2.70205 26.5816C3.44286 28.1195 4.85771 29.2741 6.52453 29.7049C7.10168 29.8535 7.73912 29.9354 8.55745 29.9741C8.90417 29.9892 12.4381 30 15.9742 30C19.5102 30 23.0463 29.9957 23.3844 29.9785C24.3319 29.9332 24.8832 29.86 25.4905 29.7027C27.1681 29.2698 28.5571 28.1325 29.313 26.573C29.692 25.7889 29.8859 25.0264 29.9742 23.9192C29.9935 23.678 30 19.8309 30 15.9903C30 12.1497 29.9914 8.3091 29.972 8.06785H29.9742ZM26.2723 20.2639C26.2206 21.3646 26.0461 22.1163 25.792 22.7733C25.5272 23.454 25.174 24.0291 24.599 24.6042C24.024 25.1793 23.449 25.5326 22.7685 25.7975C22.1117 26.0539 21.3579 26.2283 20.2575 26.2779C19.1549 26.3274 18.8039 26.3403 15.9957 26.3403C13.1875 26.3403 12.8365 26.3274 11.7339 26.2779C10.6334 26.2283 9.88186 26.0539 9.22504 25.7975C8.54453 25.5326 7.96954 25.1793 7.39455 24.6042C6.81957 24.0291 6.46639 23.4518 6.20151 22.7733C5.94524 22.1163 5.77296 21.3646 5.72127 20.2639C5.67174 19.161 5.65882 18.8099 5.65882 16.0011C5.65882 13.1922 5.67174 12.8411 5.72127 11.7383C5.7708 10.6376 5.94524 9.88584 6.20151 9.22886C6.46639 8.5482 6.81957 7.97307 7.39455 7.39795C7.96954 6.82283 8.54669 6.46957 9.22504 6.20679C9.88186 5.95046 10.6334 5.77598 11.7339 5.72644C12.8365 5.6769 13.1897 5.66397 15.9935 5.66397H15.9978C18.8039 5.66397 19.1549 5.6769 20.2575 5.72644C21.3579 5.77598 22.1095 5.95046 22.7685 6.20679C23.449 6.46957 24.024 6.82283 24.599 7.39795C25.174 7.97307 25.5272 8.55035 25.792 9.22886C26.0461 9.88584 26.2206 10.6376 26.2723 11.7383C26.3218 12.8411 26.3347 13.1944 26.3347 16.0011C26.3347 18.8078 26.3218 19.161 26.2723 20.2639Z" fill="url(#paint5_radial_342_388)"/>
<defs>
<radialGradient id="paint0_radial_342_388" cx="0" cy="0" r="1" gradientUnits="userSpaceOnUse" gradientTransform="translate(9.43754 32.1566) rotate(-90) scale(27.7501 25.8097)">
<stop stop-color="#FFDD55"/>
<stop offset="0.1" stop-color="#FFDD55"/>
<stop offset="0.5" stop-color="#FF543E"/>
<stop offset="1" stop-color="#C837AB"/>
</radialGradient>
<radialGradient id="paint1_radial_342_388" cx="0" cy="0" r="1" gradientTransform="matrix(2.4347 12.1631 -50.1358 10.0414 -2.69015 4.01707)" gradientUnits="userSpaceOnUse">
<stop stop-color="#3771C8"/>
<stop offset="0.128" stop-color="#3771C8"/>
<stop offset="1" stop-color="#6600FF" stop-opacity="0"/>
</radialGradient>
<radialGradient id="paint2_radial_342_388" cx="0" cy="0" r="1" gradientUnits="userSpaceOnUse" gradientTransform="translate(9.43754 32.1566) rotate(-90) scale(27.7501 25.8097)">
<stop stop-color="#FFDD55"/>
<stop offset="0.1" stop-color="#FFDD55"/>
<stop offset="0.5" stop-color="#FF543E"/>
<stop offset="1" stop-color="#C837AB"/>
</radialGradient>
<radialGradient id="paint3_radial_342_388" cx="0" cy="0" r="1" gradientTransform="matrix(2.4347 12.1631 -50.1358 10.0414 -2.69015 4.01707)" gradientUnits="userSpaceOnUse">
<stop stop-color="#3771C8"/>
<stop offset="0.128" stop-color="#3771C8"/>
<stop offset="1" stop-color="#6600FF" stop-opacity="0"/>
</radialGradient>
<radialGradient id="paint4_radial_342_388" cx="0" cy="0" r="1" gradientUnits="userSpaceOnUse" gradientTransform="translate(9.43754 32.1566) rotate(-90) scale(27.7501 25.8097)">
<stop stop-color="#FFDD55"/>
<stop offset="0.1" stop-color="#FFDD55"/>
<stop offset="0.5" stop-color="#FF543E"/>
<stop offset="1" stop-color="#C837AB"/>
</radialGradient>
<radialGradient id="paint5_radial_342_388" cx="0" cy="0" r="1" gradientTransform="matrix(2.4347 12.1631 -50.1358 10.0414 -2.69015 4.01707)" gradientUnits="userSpaceOnUse">
<stop stop-color="#3771C8"/>
<stop offset="0.128" stop-color="#3771C8"/>
<stop offset="1" stop-color="#6600FF" stop-opacity="0"/>
</radialGradient>
</defs>
</svg>
