<svg width="36" height="36" viewBox="0 0 36 36" fill="none" xmlns="http://www.w3.org/2000/svg">
<g clip-path="url(#clip0_342_909)">
<g clip-path="url(#clip1_342_909)">
<g clip-path="url(#clip2_342_909)">
<g clip-path="url(#clip3_342_909)">
<path d="M14.8534 12.8855C14.859 13.1409 14.8136 13.3949 14.7197 13.6325C14.6259 13.8701 14.4856 14.0865 14.3069 14.2692C14.1283 14.4518 13.915 14.5969 13.6795 14.6959C13.4441 14.795 13.1912 14.846 12.9357 14.846C12.6802 14.846 12.4274 14.795 12.1919 14.6959C11.9564 14.5969 11.7431 14.4518 11.5645 14.2692C11.3858 14.0865 11.2455 13.8701 11.1517 13.6325C11.0578 13.3949 11.0124 13.1409 11.018 12.8855C11.0336 12.3874 11.2424 11.9149 11.6003 11.5681C11.9581 11.2213 12.4369 11.0273 12.9352 11.0273C13.4336 11.0273 13.9123 11.2213 14.2702 11.5681C14.628 11.9149 14.8378 12.3874 14.8534 12.8855ZM14.4184 16.0824V24.5536C14.4187 24.6162 14.4067 24.6782 14.3831 24.736C14.3594 24.7939 14.3245 24.8465 14.2804 24.8909C14.2363 24.9352 14.1839 24.9704 14.1262 24.9944C14.0684 25.0185 14.0065 25.0308 13.944 25.0308H11.9227C11.8603 25.0309 11.7984 25.0187 11.7407 24.9949C11.683 24.971 11.6305 24.936 11.5864 24.8919C11.5422 24.8477 11.5072 24.7953 11.4834 24.7375C11.4595 24.6798 11.4473 24.618 11.4474 24.5555V16.0824C11.4473 16.0199 11.4595 15.958 11.4833 15.9002C11.5072 15.8424 11.5422 15.7899 11.5863 15.7457C11.6305 15.7014 11.6829 15.6663 11.7406 15.6424C11.7984 15.6185 11.8602 15.6061 11.9227 15.6061H13.944C14.0064 15.6063 14.0682 15.6187 14.1258 15.6427C14.1834 15.6667 14.2358 15.7018 14.2798 15.746C14.3239 15.7902 14.3588 15.8427 14.3825 15.9004C14.4063 15.9581 14.4185 16.02 14.4184 16.0824ZM24.984 20.4924V24.5939C24.9842 24.6515 24.9731 24.7085 24.9511 24.7616C24.9292 24.8148 24.897 24.8631 24.8562 24.9037C24.8155 24.9444 24.7672 24.9765 24.7139 24.9983C24.6607 25.0202 24.6037 25.0312 24.5462 25.0308H22.373C22.3156 25.0309 22.2587 25.0197 22.2056 24.9978C22.1525 24.9759 22.1042 24.9438 22.0635 24.9032C22.0229 24.8626 21.9906 24.8144 21.9686 24.7613C21.9466 24.7083 21.9352 24.6514 21.9352 24.5939V20.6189C21.9352 20.0255 22.1096 18.0221 20.3846 18.0221C19.0487 18.0221 18.7768 19.3927 18.7224 20.0096V24.5939C18.7224 24.7088 18.6772 24.8191 18.5965 24.9009C18.5157 24.9827 18.4061 25.0293 18.2912 25.0308H16.194C16.0783 25.0306 15.9674 24.9844 15.8857 24.9025C15.8039 24.8206 15.758 24.7096 15.758 24.5939V16.0449C15.7579 15.9876 15.7691 15.9308 15.791 15.8778C15.8128 15.8248 15.8449 15.7766 15.8854 15.736C15.9259 15.6954 15.974 15.6632 16.0269 15.6413C16.0799 15.6193 16.1367 15.608 16.194 15.608H18.2912C18.407 15.608 18.5182 15.654 18.6001 15.736C18.682 15.8179 18.728 15.929 18.728 16.0449V16.7836C19.2249 16.0402 19.959 15.4655 21.5284 15.4655C25.0027 15.4655 24.9821 18.7102 24.9821 20.4924H24.984Z" fill="#1E1E1E"/>
</g>
</g>
</g>
<mask id="path-3-inside-1_342_909" fill="white">
<path d="M0 18C0 8.05888 8.05888 0 18 0C27.9411 0 36 8.05888 36 18C36 27.9411 27.9411 36 18 36C8.05888 36 0 27.9411 0 18Z"/>
</mask>
<path d="M18 36V35C8.61116 35 1 27.3888 1 18H0H-1C-1 28.4934 7.50659 37 18 37V36ZM36 18H35C35 27.3888 27.3888 35 18 35V36V37C28.4934 37 37 28.4934 37 18H36ZM18 0V1C27.3888 1 35 8.61116 35 18H36H37C37 7.50659 28.4934 -1 18 -1V0ZM18 0V-1C7.50659 -1 -1 7.50659 -1 18H0H1C1 8.61116 8.61116 1 18 1V0Z" fill="#232F3A" mask="url(#path-3-inside-1_342_909)"/>
</g>
<defs>
<clipPath id="clip0_342_909">
<rect width="36" height="36" rx="18" fill="white"/>
</clipPath>
<clipPath id="clip1_342_909">
<rect width="15" height="15" fill="white" transform="translate(10.5 10.5)"/>
</clipPath>
<clipPath id="clip2_342_909">
<rect width="15" height="15" fill="white" transform="translate(10.5 10.5)"/>
</clipPath>
<clipPath id="clip3_342_909">
<rect width="15" height="15" fill="white" transform="translate(10.5 10.5)"/>
</clipPath>
</defs>
</svg>
