<svg width="36" height="36" viewBox="0 0 36 36" fill="none" xmlns="http://www.w3.org/2000/svg">
<g clip-path="url(#clip0_342_897)">
<g clip-path="url(#clip1_342_897)">
<g clip-path="url(#clip2_342_897)">
<g clip-path="url(#clip3_342_897)">
<path d="M24.5355 12.202L24.2875 12.292L10.8175 17.146C10.7222 17.1756 10.6393 17.2359 10.5819 17.3176C10.5245 17.3993 10.4959 17.4978 10.5005 17.5975C10.505 17.6972 10.5426 17.7926 10.6072 17.8687C10.6718 17.9448 10.7599 17.9973 10.8575 18.018L14.3435 18.973L14.9935 20.882L15.6445 22.791C15.6819 22.8846 15.7416 22.9676 15.8183 23.0329C15.8951 23.0981 15.9866 23.1437 16.0849 23.1655C16.1832 23.1874 16.2854 23.185 16.3826 23.1584C16.4798 23.1318 16.569 23.0819 16.6425 23.013L18.4445 21.311L21.9815 23.711C22.4135 24.005 23.0305 23.786 23.1415 23.301L25.4825 12.95C25.5965 12.437 25.0575 12.016 24.5345 12.202H24.5355ZM22.8155 14.5L16.7315 19.475L16.4445 19.709C16.3818 19.7591 16.3409 19.8315 16.3305 19.911L16.2665 20.441L16.0905 21.926C16.092 21.9442 16.0862 21.9622 16.0743 21.9761C16.0625 21.99 16.0457 21.9986 16.0275 22C16.0094 22.0015 15.9913 21.9957 15.9775 21.9839C15.9636 21.972 15.955 21.9552 15.9535 21.937L15.4585 20.452L14.9485 18.932C14.9268 18.8638 14.9295 18.7902 14.9561 18.7238C14.9827 18.6574 15.0317 18.6023 15.0945 18.568L21.4275 14.938L22.6195 14.256C22.7925 14.156 22.9695 14.375 22.8175 14.5H22.8155Z" fill="#1E1E1E"/>
</g>
</g>
</g>
<mask id="path-3-inside-1_342_897" fill="white">
<path d="M0 18C0 8.05888 8.05888 0 18 0C27.9411 0 36 8.05888 36 18C36 27.9411 27.9411 36 18 36C8.05888 36 0 27.9411 0 18Z"/>
</mask>
<path d="M18 36V35C8.61116 35 1 27.3888 1 18H0H-1C-1 28.4934 7.50659 37 18 37V36ZM36 18H35C35 27.3888 27.3888 35 18 35V36V37C28.4934 37 37 28.4934 37 18H36ZM18 0V1C27.3888 1 35 8.61116 35 18H36H37C37 7.50659 28.4934 -1 18 -1V0ZM18 0V-1C7.50659 -1 -1 7.50659 -1 18H0H1C1 8.61116 8.61116 1 18 1V0Z" fill="#232F3A" mask="url(#path-3-inside-1_342_897)"/>
</g>
<defs>
<clipPath id="clip0_342_897">
<rect width="36" height="36" rx="18" fill="white"/>
</clipPath>
<clipPath id="clip1_342_897">
<rect width="15" height="12" fill="white" transform="translate(10.5 12)"/>
</clipPath>
<clipPath id="clip2_342_897">
<rect width="15" height="12" fill="white" transform="translate(10.5 12)"/>
</clipPath>
<clipPath id="clip3_342_897">
<rect width="16" height="12" fill="white" transform="translate(10 12)"/>
</clipPath>
</defs>
</svg>
